<svg version="1.1" xmlns="http://www.w3.org/2000/svg" style="display: block" preserveAspectRatio="none" width="1024" height="1024" viewBox="0 0 2048 2048">
<path transform="translate(0,0)" fill="#010101" d="M 759.925 802.458 L 1055.07 801.78 L 1217.07 802.119 C 1241.6 802.198 1267.96 801.553 1292.48 803.522 C 1298.73 804.024 1304.24 811.653 1303.36 817.989 C 1302.23 826.154 1299.91 828.218 1293.59 833.305 C 1276.58 834.555 1248.75 833.669 1230.94 833.671 C 1220.33 859.762 1209.56 892.753 1199.85 919.712 C 1206.94 942.956 1216.05 968.142 1223.94 991.283 L 1263.83 1108.23 L 1428.63 1107.93 C 1466.35 1107.87 1521.17 1105.17 1555.92 1113.7 C 1587.71 1121.76 1616.83 1138.06 1640.33 1160.94 C 1674.66 1194.84 1695.08 1239.48 1695.24 1287.99 C 1695.68 1336.89 1676.41 1383.9 1641.77 1418.42 C 1617.05 1443.08 1585.99 1460.42 1552.02 1468.53 C 1521.89 1475.86 1471.54 1473.7 1439.04 1473.71 L 1285.75 1473.61 L 741.302 1473.59 L 599.543 1473.67 C 569.003 1473.71 532.057 1475.23 502.497 1470.35 C 469.37 1464.89 432.624 1444.98 408.728 1421.43 C 373.666 1386.8 353.708 1339.72 353.204 1290.44 C 353.106 1240.41 373.552 1196.14 408.743 1160.95 C 469.457 1100.24 539.628 1108.02 618.067 1108.06 L 784.307 1108.44 C 792.705 1088.05 800.966 1059.84 808.316 1038.33 L 849.301 921.133 C 839.966 892.749 828.375 863.391 818.695 834.598 C 801.802 833.736 747.838 841.686 745.407 820.051 C 744.384 810.951 751.693 804.977 759.925 802.458 z M 1531.89 1407.86 C 1598.7 1394.87 1644.06 1335.33 1630.44 1267.29 C 1623.99 1236.18 1605.4 1208.92 1578.78 1191.56 C 1561.9 1180.76 1542.64 1174.24 1522.67 1172.57 C 1508.7 1171.5 1485.33 1172.25 1470.64 1172.3 L 1378.59 1172.56 L 1076.37 1172.62 L 709.134 1172.52 L 590.212 1172.51 C 572.043 1172.45 544.649 1171.21 527.714 1172.43 C 494.376 1175.32 465.758 1189.21 444.027 1215 C 423.781 1238.73 413.969 1269.64 416.816 1300.7 C 422.243 1357.58 465.098 1403.99 523.299 1408.76 C 542.187 1410.3 562.397 1409.32 581.452 1409.19 L 673.253 1409.14 L 1003.44 1409.26 L 1360.43 1409.2 L 1463.29 1409.23 C 1480.37 1409.33 1509.18 1410.35 1525.61 1408.73 C 1527.72 1408.53 1529.81 1408.24 1531.89 1407.86 z"/>
<path transform="translate(0,0)" fill="#748792" d="M 523.666 1140.4 C 533.892 1138.12 561.298 1139.51 573.029 1139.6 C 600.403 1139.81 627.777 1139.87 655.151 1139.78 L 974.911 1139.72 L 1354.5 1139.75 L 1465.9 1139.77 C 1483.21 1139.78 1514.89 1139.01 1530.82 1141.04 C 1560.68 1144.97 1588.77 1157.42 1611.74 1176.9 C 1642 1202.5 1660.93 1239.01 1664.39 1278.49 C 1667.57 1317.12 1654.9 1357.27 1629.61 1386.73 C 1605.83 1414.43 1564.98 1438.03 1528.23 1440.78 C 1527.27 1440.93 1526.3 1441.07 1525.34 1441.18 C 1512.88 1442.72 1486.97 1442.07 1473.44 1442.06 L 1377.97 1441.98 L 1059.36 1442.02 L 697.301 1442.02 L 586.653 1442.09 C 532.304 1442.11 488.477 1445.59 442.516 1409.61 C 410.48 1384.39 389.787 1347.47 384.999 1306.98 C 375.155 1221.97 439.763 1149.07 523.666 1140.4 z M 1531.89 1407.86 C 1598.7 1394.87 1644.06 1335.33 1630.44 1267.29 C 1623.99 1236.18 1605.4 1208.92 1578.78 1191.56 C 1561.9 1180.76 1542.64 1174.24 1522.67 1172.57 C 1508.7 1171.5 1485.33 1172.25 1470.64 1172.3 L 1378.59 1172.56 L 1076.37 1172.62 L 709.134 1172.52 L 590.212 1172.51 C 572.043 1172.45 544.649 1171.21 527.714 1172.43 C 494.376 1175.32 465.758 1189.21 444.027 1215 C 423.781 1238.73 413.969 1269.64 416.816 1300.7 C 422.243 1357.58 465.098 1403.99 523.299 1408.76 C 542.187 1410.3 562.397 1409.32 581.452 1409.19 L 673.253 1409.14 L 1003.44 1409.26 L 1360.43 1409.2 L 1463.29 1409.23 C 1480.37 1409.33 1509.18 1410.35 1525.61 1408.73 C 1527.72 1408.53 1529.81 1408.24 1531.89 1407.86 z"/>
<path transform="translate(0,0)" fill="#010101" d="M 527.714 1172.43 C 544.649 1171.21 572.043 1172.45 590.212 1172.51 L 709.134 1172.52 L 1076.37 1172.62 L 1378.59 1172.56 L 1470.64 1172.3 C 1485.33 1172.25 1508.7 1171.5 1522.67 1172.57 C 1542.64 1174.24 1561.9 1180.76 1578.78 1191.56 C 1605.4 1208.92 1623.99 1236.18 1630.44 1267.29 C 1644.06 1335.33 1598.7 1394.87 1531.89 1407.86 C 1529.81 1408.24 1527.72 1408.53 1525.61 1408.73 C 1509.18 1410.35 1480.37 1409.33 1463.29 1409.23 L 1360.43 1409.2 L 1003.44 1409.26 L 673.253 1409.14 L 581.452 1409.19 C 562.397 1409.32 542.187 1410.3 523.299 1408.76 C 465.098 1403.99 422.243 1357.58 416.816 1300.7 C 413.969 1269.64 423.781 1238.73 444.027 1215 C 465.758 1189.21 494.376 1175.32 527.714 1172.43 z M 1100.39 1378.2 C 1130.02 1378.24 1164.56 1379.12 1193.7 1378.18 C 1188.97 1369.95 1179.58 1362.43 1174.15 1354.03 C 1157.33 1328.02 1151.46 1294.25 1158.42 1264.06 C 1164.54 1238.25 1176.87 1222.84 1194.32 1204.18 C 1166.86 1203.89 1126.58 1202.9 1099.74 1204.16 C 1102.69 1207.36 1105.76 1210.49 1108.65 1213.73 C 1154.27 1264.77 1148.05 1331.59 1100.39 1378.2 z M 1350.21 1204.31 L 1351.32 1206.01 C 1356.89 1214.42 1363.6 1221.43 1369.17 1230.81 C 1384.03 1255.85 1389.31 1284.95 1383.6 1313.5 C 1377.88 1342.11 1367.27 1358.47 1346.15 1377.44 C 1374.84 1378.23 1409.73 1378.45 1438.48 1377.93 C 1433.19 1369.7 1425.08 1362.75 1419.78 1353.92 C 1388.27 1301.37 1397.69 1245.86 1440.44 1204.26 C 1414.41 1204.17 1375.21 1202.81 1350.21 1204.31 z M 699.596 1377.87 C 695.849 1370.99 685.715 1361.75 680.735 1353.45 C 651.704 1305.1 659.229 1241.26 703.067 1204.42 C 673.212 1204.32 638.311 1203.28 608.981 1204.2 C 614.743 1210.88 621.932 1217.87 626.891 1224.93 C 649.602 1257.26 653.1 1300.3 637.736 1336.47 C 630.648 1353.16 620.97 1364.57 608.872 1377.71 C 639.113 1377.96 669.355 1378.02 699.596 1377.87 z M 855.154 1204.14 C 867.007 1215.85 875.826 1226.32 882.597 1241.74 C 903.383 1289.07 892.632 1344.32 853.012 1377.95 L 914.599 1377.96 C 923.047 1377.97 939.142 1378.52 946.638 1377.83 C 933.733 1363.04 923.529 1351.09 916.666 1332.25 C 899.157 1284.18 912.181 1239.68 947.357 1204.35 C 921.304 1203.94 880.733 1202.9 855.154 1204.14 z"/>
<path transform="translate(0,0)" fill="#41c6e1" d="M 1097.49 1331.86 C 1091.84 1344.19 1078.55 1357.21 1066.87 1364.11 C 1047.95 1375.55 1025.22 1378.87 1003.82 1373.33 C 981.558 1367.66 962.509 1353.28 950.971 1333.41 C 923.718 1286.28 947.897 1225.25 999.472 1209.78 C 1008.27 1207.15 1021.96 1204.21 1030.88 1206.75 C 1050.25 1207.28 1071.18 1218.03 1084.49 1231.89 C 1100.52 1248.3 1109.28 1270.48 1108.78 1293.42 C 1108.37 1306.65 1104.58 1320.63 1097.49 1331.86 z"/>
<path transform="translate(0,0)" fill="#40d2ea" d="M 1030.88 1206.75 C 1050.25 1207.28 1071.18 1218.03 1084.49 1231.89 C 1100.52 1248.3 1109.28 1270.48 1108.78 1293.42 C 1108.37 1306.65 1104.58 1320.63 1097.49 1331.86 C 1096.05 1329.52 1099.03 1325.26 1100.06 1322.36 C 1118.2 1271.41 1083.13 1218.49 1031.83 1207.67 C 1031.52 1207.37 1031.2 1207.06 1030.88 1206.75 z"/>
<path transform="translate(0,0)" fill="#010101" d="M 1018.89 1240.25 C 1046.88 1237.43 1071.88 1257.78 1074.8 1285.76 C 1077.72 1313.73 1057.47 1338.81 1029.5 1341.83 C 1001.39 1344.87 976.151 1324.49 973.215 1296.36 C 970.278 1268.24 990.758 1243.08 1018.89 1240.25 z"/>
<path transform="translate(0,0)" fill="#41c6e1" d="M 579.281 1360.57 C 561.658 1376.2 529.146 1378.45 507.358 1371.84 C 486.003 1365.42 468.12 1350.69 457.717 1330.97 C 447.021 1310.64 444.185 1287.03 451.082 1265.01 C 457.832 1243.49 472.922 1225.58 492.98 1215.26 C 512.891 1205.04 536.089 1203.31 557.3 1210.45 C 599.053 1224.44 627.607 1271.09 612.66 1313.95 C 607.262 1333.18 596.202 1349.6 579.281 1360.57 z"/>
<path transform="translate(0,0)" fill="#40d2ea" d="M 579.281 1360.57 C 579.348 1359.97 579.874 1358.67 580.101 1358.03 C 579.308 1353.31 591.981 1344.93 595.189 1340.44 C 601.079 1332.2 604.881 1323.5 609.627 1314.71 L 612.66 1313.95 C 607.262 1333.18 596.202 1349.6 579.281 1360.57 z"/>
<path transform="translate(0,0)" fill="#010101" d="M 530.452 1240.41 C 558.274 1239.82 581.374 1261.76 582.209 1289.57 C 583.044 1317.39 561.302 1340.68 533.495 1341.75 C 505.346 1342.84 481.707 1320.77 480.862 1292.62 C 480.016 1264.46 502.289 1241.01 530.452 1240.41 z"/>
<path transform="translate(0,0)" fill="#41c6e1" d="M 1262.02 1206.86 C 1308.41 1201.91 1350.04 1235.48 1355.05 1281.87 C 1360.05 1328.25 1326.53 1369.92 1280.15 1374.98 C 1233.69 1380.04 1191.94 1346.45 1186.93 1299.99 C 1181.92 1253.53 1215.55 1211.82 1262.02 1206.86 z"/>
<path transform="translate(0,0)" fill="#010101" d="M 1265.11 1240.54 C 1292.86 1237.42 1317.94 1257.24 1321.33 1284.95 C 1324.72 1312.67 1305.16 1337.94 1277.47 1341.6 C 1249.41 1345.31 1223.7 1325.41 1220.26 1297.31 C 1216.83 1269.21 1236.98 1243.7 1265.11 1240.54 z"/>
<path transform="translate(0,0)" fill="#41c6e1" d="M 1505.84 1206.99 C 1552.2 1200.92 1594.69 1233.64 1600.66 1280.01 C 1606.64 1326.38 1573.85 1368.8 1527.46 1374.69 C 1481.21 1380.56 1438.93 1347.88 1432.97 1301.63 C 1427 1255.38 1459.61 1213.04 1505.84 1206.99 z"/>
<path transform="translate(0,0)" fill="#010101" d="M 1512.72 1240.46 C 1540.7 1238.25 1565.17 1259.18 1567.32 1287.17 C 1569.47 1315.16 1548.49 1339.58 1520.49 1341.67 C 1492.58 1343.75 1468.26 1322.84 1466.11 1294.94 C 1463.97 1267.04 1484.82 1242.67 1512.72 1240.46 z"/>
<path transform="translate(0,0)" fill="#41c6e1" d="M 862.467 1288.15 C 863.616 1323.93 842.092 1356.55 808.744 1369.57 C 775.396 1382.58 737.464 1373.17 714.071 1346.07 C 690.678 1318.97 686.902 1280.08 704.647 1248.98 C 722.392 1217.89 757.805 1201.36 793.034 1207.72 C 832.25 1214.8 861.187 1248.32 862.467 1288.15 z"/>
<path transform="translate(0,0)" fill="#40d2ea" d="M 793.034 1207.72 C 832.25 1214.8 861.187 1248.32 862.467 1288.15 C 859.41 1279.12 861.121 1278.77 856.624 1269.43 L 857.793 1273.58 C 854.406 1265.2 851.238 1256.91 846.755 1249.01 C 841.794 1240.97 835.933 1235.97 831.854 1227.43 C 828.717 1220.86 800.679 1211.28 794.03 1209.5 L 793.034 1207.72 z"/>
<path transform="translate(0,0)" fill="#010101" d="M 805.842 1333.74 C 786.045 1346.62 759.982 1344.17 742.933 1327.82 C 725.885 1311.47 722.343 1285.54 734.386 1265.22 C 746.428 1244.9 770.88 1235.55 793.406 1242.65 C 815.932 1249.76 830.596 1271.45 828.8 1295 L 830.583 1295.89 C 831.865 1302.21 827.718 1308.11 826.222 1313.54 L 827.436 1313.82 C 829.2 1311.73 829.403 1309.64 830.059 1306.95 C 830.263 1320.45 819.037 1331.76 805.842 1333.74 z"/>
<path transform="translate(0,0)" fill="#40d2ea" d="M 828.8 1295 L 830.583 1295.89 C 831.865 1302.21 827.718 1308.11 826.222 1313.54 L 827.436 1313.82 C 829.2 1311.73 829.403 1309.64 830.059 1306.95 C 830.263 1320.45 819.037 1331.76 805.842 1333.74 C 819.109 1325.1 827.597 1310.78 828.8 1295 z"/>
<path transform="translate(0,0)" fill="#41c6e1" d="M 876.755 932.629 L 1171.48 932.82 C 1176.2 942.779 1181.97 962.836 1185.87 973.927 L 1217.74 1066.83 C 1221.86 1078.73 1227.38 1096.13 1232 1107.43 C 1223.67 1108.73 1184.82 1108.09 1174.47 1108.15 C 1168.12 1091.47 1146.76 1017.1 1139.6 1009.5 C 1137.32 1007.08 1134.86 1005.87 1131.58 1005.43 C 1113.13 1002.93 1081.39 1005.03 1061.24 1005.05 L 915.012 1005.09 C 903.103 1013.6 902.327 1026.05 897.43 1039.27 C 889.113 1061.73 883.275 1085.74 874.516 1107.98 L 817.07 1107.97 C 836.544 1049.38 856.439 990.932 876.755 932.629 z"/>
<path transform="translate(0,0)" fill="#40d2ea" d="M 1171.48 932.82 C 1176.2 942.779 1181.97 962.836 1185.87 973.927 L 1217.74 1066.83 C 1221.86 1078.73 1227.38 1096.13 1232 1107.43 L 1225.4 1106.61 C 1228.19 1104.15 1227.19 1105.68 1227.93 1101.53 C 1226.37 1102.88 1225.37 1103.65 1223.68 1104.85 C 1222.59 1100.99 1226.22 1102.96 1224.28 1097.65 C 1211.49 1062.64 1200.55 1027.01 1187.6 992.057 C 1181.4 975.336 1175.04 958.409 1170.34 941.21 C 1169.64 938.645 1170.71 935.295 1171.48 932.82 z"/>
<path transform="translate(0,0)" fill="#41c6e1" d="M 930.946 1036.08 C 973.178 1036.69 1015.42 1036.83 1057.65 1036.5 C 1070.13 1036.47 1107.59 1035.56 1117.03 1036.86 L 1118.29 1039 C 1120.49 1044.9 1134.27 1082.62 1134.62 1086.75 C 1137.77 1093.95 1140.03 1100.56 1142.61 1107.98 L 983.634 1107.98 C 963.413 1107.98 925.71 1109.16 906.433 1107.8 C 911.485 1095.32 915.785 1079.36 920.746 1065.96 C 923.872 1055.75 927.356 1046.11 930.946 1036.08 z"/>
<path transform="translate(0,0)" fill="#40d2ea" d="M 1118.29 1039 C 1120.49 1044.9 1134.27 1082.62 1134.62 1086.75 L 1133.38 1087.19 L 1132.37 1086.27 C 1127.33 1085.06 1116.84 1050.3 1117.18 1043.87 C 1117.05 1046.32 1118.68 1036.92 1118.01 1040.57 L 1118.29 1039 z"/>
<path transform="translate(0,0)" fill="#40d2ea" d="M 920.746 1065.96 L 922.287 1066.69 C 920.694 1071.94 919.066 1077.18 917.402 1082.4 C 915.477 1088.28 916.278 1102.29 911.177 1106.8 L 906.433 1107.8 C 911.485 1095.32 915.785 1079.36 920.746 1065.96 z"/>
<path transform="translate(0,0)" fill="#41c6e1" d="M 1131.17 834.79 C 1140.01 834.737 1148.85 834.822 1157.68 835.046 C 1164.87 834.59 1175.93 834.718 1183.34 835.096 C 1188.32 835 1193.31 834.961 1198.29 834.978 C 1190.36 854.421 1182.26 882.961 1174.31 900.134 C 1171.34 901.881 1137.9 901.251 1131.51 900.979 C 1127.18 901.426 1117.91 901.314 1113.2 901.4 C 1119.6 884.459 1126.55 853.176 1131.17 834.79 z"/>
<path transform="translate(0,0)" fill="#40d2ea" d="M 1131.17 834.79 C 1140.01 834.737 1148.85 834.822 1157.68 835.046 C 1149.48 837.604 1142.95 837.578 1134.5 837.524 C 1132.07 848.717 1120.21 892.462 1121.37 899.103 C 1127.34 901.222 1128.75 897.961 1131.51 900.979 C 1127.18 901.426 1117.91 901.314 1113.2 901.4 C 1119.6 884.459 1126.55 853.176 1131.17 834.79 z"/>
<path transform="translate(0,0)" fill="#40d2ea" d="M 1183.34 835.096 C 1188.32 835 1193.31 834.961 1198.29 834.978 C 1190.36 854.421 1182.26 882.961 1174.31 900.134 C 1169.39 888.753 1190.64 855.315 1194.35 838.314 C 1192.39 833.803 1188.12 838.857 1183.34 835.096 z"/>
<path transform="translate(0,0)" fill="#41c6e1" d="M 851.339 834.735 L 918.289 834.978 C 920.187 845.221 933.622 895.273 933.281 900.642 C 930.504 901.6 930.514 901.637 927.6 901.831 C 914.695 900.628 888.475 901.469 874.99 901.529 C 869.99 890.05 859.444 859.49 855.711 847.15 C 854.114 842.908 852.725 839.049 851.339 834.735 z"/>
<path transform="translate(0,0)" fill="#40d2ea" d="M 851.339 834.735 L 918.289 834.978 C 920.187 845.221 933.622 895.273 933.281 900.642 C 930.504 901.6 930.514 901.637 927.6 901.831 C 929.009 900.937 930.086 900.022 931.401 898.993 L 931.222 897.607 L 926.844 896.344 C 926.913 894.206 926.999 890.217 926.148 888.397 C 922.466 880.513 918.147 839.971 909.31 839.297 C 898.332 838.46 864.971 836.621 856.867 841.455 L 855.711 847.15 C 854.114 842.908 852.725 839.049 851.339 834.735 z"/>
<path transform="translate(0,0)" fill="#748792" d="M 957.647 870.342 C 1002.03 870.759 1046.42 870.916 1090.81 870.81 C 1089.36 878.707 1086.99 887.879 1085.16 895.8 L 1083.95 899.491 C 1083.41 899.958 1082.87 900.424 1082.33 900.89 C 1057.81 901.386 986.167 901.255 965.443 901.329 C 962.46 892.191 959.905 879.894 957.647 870.342 z"/>
<path transform="translate(0,0)" fill="#010101" d="M 670.837 575.018 C 687.59 574.001 714.008 574.933 731.578 575.027 L 837.367 575.147 L 1204.97 574.977 L 1312.94 575.172 C 1325.88 575.21 1355.76 576.118 1366.62 575.032 C 1373.81 575.467 1390.28 577.142 1387.44 588.322 C 1383.65 603.217 1353.91 679.116 1345.74 686.359 C 1340.73 690.794 1290.41 688.788 1280.21 688.675 C 1276.03 698.801 1246.76 784.454 1241.84 785.067 C 1214.66 788.454 1163.69 784.808 1134.02 786.81 C 1124.58 787.447 1120.02 783.197 1115.41 776.139 C 1110.12 770.914 1104.76 772.196 1096.77 772.127 C 1095.32 774.261 1093.79 776.383 1092.53 778.621 C 1088.49 784.308 1086.01 786.125 1078.92 786.057 C 1040.61 785.689 1001.65 787.757 963.522 785.352 C 960.869 785.185 957.303 776.086 956.359 773.805 L 955.002 772.645 C 950.344 772.355 938.321 771.936 934.826 774.498 C 928.002 786.944 923.186 787.829 908.916 786.337 C 885.115 783.847 824.621 790.794 804.67 783.522 C 798.492 775.379 775.631 704.503 769.791 689.019 C 749.811 688.011 727.811 690.091 707.837 688.313 C 703.656 687.753 700.199 686.121 698.177 682.049 C 684.267 654.027 673.42 623.491 662.092 594.308 C 658.649 585.437 663.974 579.653 670.837 575.018 z"/>
<path transform="translate(0,0)" fill="#41c6e1" d="M 816.482 728.317 C 819.114 719.484 806.655 703.523 809.617 693.958 C 813.472 691.581 936.418 694.078 950.542 694.09 L 1057.03 694.851 L 1185.44 694.682 C 1204.21 694.571 1218.65 690.671 1239.17 694.77 C 1237.46 699.914 1218.29 757.659 1216.8 759.572 C 1207.9 761.512 1197.02 758.566 1190.46 758.72 C 1181.2 758.937 1131.44 756.665 1126.43 759.581 L 1125.11 762.303 C 1118.61 765.408 1116.47 768.936 1115.41 776.139 C 1110.12 770.914 1104.76 772.196 1096.77 772.127 C 1095.32 774.261 1093.79 776.383 1092.53 778.621 C 1088.49 784.308 1086.01 786.125 1078.92 786.057 C 1040.61 785.689 1001.65 787.757 963.522 785.352 C 960.869 785.185 957.303 776.086 956.359 773.805 L 955.002 772.645 C 950.344 772.355 938.321 771.936 934.826 774.498 C 931.842 768.481 931.029 767.072 925.858 762.718 L 828.668 762.73 C 824.398 753.757 819.359 737.923 816.482 728.317 z"/>
<path transform="translate(0,0)" fill="#010101" d="M 963.724 763.046 C 1004.27 762.341 1044.83 763.062 1085.37 762.833 C 1091.18 768.276 1092.97 770.425 1092.53 778.621 C 1088.49 784.308 1086.01 786.125 1078.92 786.057 C 1040.61 785.689 1001.65 787.757 963.522 785.352 C 960.869 785.185 957.303 776.086 956.359 773.805 C 959.041 768.376 959.474 767.271 963.724 763.046 z"/>
<path transform="translate(0,0)" fill="#40d2ea" d="M 802.92 689.332 C 831.789 690.288 863.147 689.63 892.201 689.683 L 1068.5 689.678 L 1183.13 689.69 C 1200.91 689.708 1229.31 690.461 1246.3 689.336 C 1237.86 713.642 1229.15 737.855 1220.17 761.968 C 1197.3 764.486 1150.4 761.945 1125.11 762.303 L 1126.43 759.581 C 1131.44 756.665 1181.2 758.937 1190.46 758.72 C 1197.02 758.566 1207.9 761.512 1216.8 759.572 C 1218.29 757.659 1237.46 699.914 1239.17 694.77 C 1218.65 690.671 1204.21 694.571 1185.44 694.682 L 1057.03 694.851 L 950.542 694.09 C 936.418 694.078 813.472 691.581 809.617 693.958 C 806.655 703.523 819.114 719.484 816.482 728.317 C 811.85 715.361 807.329 702.366 802.92 689.332 z"/>
<path transform="translate(0,0)" fill="#41c6e1" d="M 699.987 606.587 C 723.177 607.487 751.701 606.737 775.316 606.773 C 775.048 619.289 773.274 639.743 793.577 636.73 C 800.623 635.685 802.882 632.543 806.978 626.894 L 806.94 606.739 L 957.177 606.898 L 957.159 627.274 C 963.088 634.311 974.237 642.928 982.699 633.996 C 990.261 626.014 989.19 616.914 988.933 606.769 L 1059.86 606.751 C 1058.67 626.165 1061.03 644.561 1086.03 633.911 L 1091.45 626.277 L 1090.99 606.518 C 1140.97 606.878 1190.97 606.964 1240.96 606.775 C 1240.46 624.444 1240.45 642.619 1264.68 636.119 C 1265.55 634.717 1270.15 629.979 1272.62 626.212 C 1272.6 619.868 1272.24 612.884 1272.04 606.489 C 1282.01 606.467 1291.4 606.459 1301.39 606.914 C 1316.23 606.12 1332.9 606.89 1347.92 606.695 C 1341.66 623.658 1334.93 640.449 1327.76 657.049 C 1323.16 658.735 1249.06 658.028 1238.38 657.755 C 1223.01 658.578 1199.73 657.874 1184 657.866 L 1077.42 657.808 L 722.497 657.893 C 719.403 656.004 720.621 657.339 719.395 653.196 C 714.245 643.373 704.526 617.563 699.987 606.587 z"/>
<path transform="translate(0,0)" fill="#40d2ea" d="M 719.395 653.196 C 721.432 649.117 720.749 650.1 720.518 644.917 L 721.256 646.188 C 723.054 649.22 724.854 652.891 728.442 653.262 C 741.14 654.573 759.059 654.182 771.843 654.086 L 845.405 653.712 L 1169 653.27 C 1195.31 653.338 1224.6 657.891 1249.71 655.679 C 1246.54 656.274 1241.13 656.961 1238.38 657.755 C 1223.01 658.578 1199.73 657.874 1184 657.866 L 1077.42 657.808 L 722.497 657.893 C 719.403 656.004 720.621 657.339 719.395 653.196 z"/>
<path transform="translate(0,0)" fill="#40d2ea" d="M 1090.99 606.518 C 1140.97 606.878 1190.97 606.964 1240.96 606.775 C 1240.46 624.444 1240.45 642.619 1264.68 636.119 L 1264.46 636.996 C 1261.94 639.477 1256.37 640.714 1252.75 641.844 C 1243.46 637.775 1241.61 636.561 1236.55 628 C 1236.42 622.334 1236.62 616.494 1236.74 610.815 C 1191.16 608.352 1142.37 609.45 1096.49 609.496 C 1096.55 618.4 1098.25 624.757 1092.77 631.122 L 1094.32 627.803 C 1091.18 630.516 1089.85 633.424 1086.03 633.911 L 1091.45 626.277 L 1090.99 606.518 z"/>
<path transform="translate(0,0)" fill="#40d2ea" d="M 1301.39 606.914 C 1316.23 606.12 1332.9 606.89 1347.92 606.695 C 1341.66 623.658 1334.93 640.449 1327.76 657.049 C 1327.51 653.434 1328.3 654.716 1326.26 652.569 C 1323.78 653.456 1321.7 654.459 1319.09 654.397 L 1320.18 652.418 C 1322.12 651.564 1323.86 650.669 1325.75 649.719 C 1328.84 644.423 1338.57 617.79 1340.37 611.581 C 1337.87 606.44 1306.36 611.285 1301.39 606.914 z"/>
<path transform="translate(0,0)" fill="#ffffff" fill-opacity="0.0117647" d="M 670.837 575.018 L 671.527 572.138 C 674.989 570.413 680.449 570.666 684.445 570.641 L 1115.35 571.484 L 1269.11 571.633 C 1297.21 571.662 1338.98 570.436 1365.63 573.881 L 1366.62 575.032 C 1355.76 576.118 1325.88 575.21 1312.94 575.172 L 1204.97 574.977 L 837.367 575.147 L 731.578 575.027 C 714.008 574.933 687.59 574.001 670.837 575.018 z"/>
</svg>