<svg version="1.1" xmlns="http://www.w3.org/2000/svg" style="display: block" preserveAspectRatio="none" width="1024" height="1024" viewBox="0 0 2048 2048">
<path transform="translate(0,0)" fill="#2fb9ca" d="M 1042.62 443.912 C 1018.76 485.911 1025.41 523.29 1053.47 560.921 C 1053.48 577.123 1081.22 584.998 1084.25 596.273 C 1079.98 595.924 1075.33 595.868 1071.02 595.729 C 1038.33 606.082 995.472 624.564 963.529 637.915 C 932.688 650.481 901.777 662.874 870.797 675.093 L 769.367 715.31 C 758.792 719.554 728.903 730.97 720.725 736.166 C 721.747 740.095 771.847 788.471 778.281 794.881 L 890.88 907.665 L 960.452 977.434 C 972.732 989.74 992.157 1009.93 1005.39 1020.52 C 1059.25 1015.93 1107.9 1026.71 1150.18 1062.16 C 1188.36 1094.62 1212.12 1140.89 1216.25 1190.84 C 1220.45 1241.1 1203.98 1286.1 1171.79 1324.6 C 1155.55 1344.02 1142.14 1350.61 1123.76 1365.25 C 1122.2 1369.89 1123.46 1400.19 1123.49 1407.94 L 763.27 1408.37 C 763.712 1350.23 764.325 1289.77 761.824 1231.81 C 761.408 1222.15 762.709 1208.15 761.657 1199.7 C 755.831 1190.96 749.698 1182.43 743.27 1174.13 C 695.882 1109.92 649.779 1041.47 604.657 975.584 C 576.634 934.888 548.362 894.363 519.844 854.011 C 500.499 826.484 483.484 799.734 460 775.515 C 416.635 730.792 404.89 663.089 431.67 606.47 C 448.803 570.613 479.494 543.042 516.976 529.836 C 548.31 518.948 583.46 518.944 614.995 529.463 C 622.021 531.807 635.632 538.752 642.721 542.165 C 664.582 535.839 694.931 528.931 717.214 523.45 L 843.983 492.071 C 881.407 482.351 918.905 472.917 956.473 463.767 C 986.932 456.136 1011.66 449.445 1042.62 443.912 z"/>
<path transform="translate(0,0)" fill="#010101" d="M 743.27 1174.13 C 695.882 1109.92 649.779 1041.47 604.657 975.584 C 576.634 934.888 548.362 894.363 519.844 854.011 C 500.499 826.484 483.484 799.734 460 775.515 C 416.635 730.792 404.89 663.089 431.67 606.47 C 448.803 570.613 479.494 543.042 516.976 529.836 C 548.31 518.948 583.46 518.944 614.995 529.463 C 622.021 531.807 635.632 538.752 642.721 542.165 L 645.016 543.375 C 664.008 555.271 673.901 563.903 687.926 581.897 C 712.378 620.642 723.171 654.909 712.636 701.14 C 702.023 747.714 682.262 774.287 643.449 800.264 L 794.571 961.346 L 839.305 1008.56 C 847.013 1016.69 858.735 1028.63 865.469 1037.03 C 829.265 1045.91 787.546 1082.2 768.295 1114.24 C 751.06 1142.93 753.623 1148.09 743.27 1174.13 z"/>
<path transform="translate(0,0)" fill="#2fb9ca" d="M 639.663 574.555 C 688.314 611.824 701.52 679.531 670.44 732.351 C 639.36 785.172 573.761 806.51 517.554 782.08 C 461.347 757.651 432.195 695.131 449.612 636.372 C 467.029 577.612 525.542 541.077 585.982 551.223 C 605.512 554.502 623.942 562.512 639.663 574.555 z"/>
<path transform="translate(0,0)" fill="#25c2d0" d="M 585.982 551.223 C 605.512 554.502 623.942 562.512 639.663 574.555 C 628.534 577.056 602.924 554.701 589.954 554.114 C 587.505 554.004 586.212 553.979 584.559 552.45 L 585.982 551.223 z"/>
<path transform="translate(0,0)" fill="#010101" d="M 566.157 578.101 C 567.225 577.535 568.293 576.97 569.361 576.405 C 577.741 576.655 595.323 579.635 602.748 581.872 C 613.435 585.091 634.862 600.655 639.7 610.358 L 639.681 614.544 C 665.964 648.865 665.12 696.774 637.646 730.149 C 610.172 763.524 563.318 773.557 524.586 754.359 C 485.854 735.161 465.466 691.799 475.389 649.725 C 485.313 607.65 522.928 577.968 566.157 578.101 z"/>
<path transform="translate(0,0)" fill="#25c2d0" d="M 566.157 578.101 C 567.225 577.535 568.293 576.97 569.361 576.405 C 577.741 576.655 595.323 579.635 602.748 581.872 C 613.435 585.091 634.862 600.655 639.7 610.358 L 639.681 614.544 C 622.151 591.651 594.99 578.189 566.157 578.101 z"/>
<path transform="translate(0,0)" fill="#010101" d="M 761.657 1199.7 C 771.661 1144.14 791.454 1105.5 838.571 1071.88 C 919.776 1013.94 1036.57 1036.81 1092.61 1118.63 C 1105.7 1137.47 1114.93 1158.72 1119.75 1181.15 C 1125.29 1206.86 1124.03 1239.41 1123.97 1266.19 L 1123.76 1365.25 C 1122.2 1369.89 1123.46 1400.19 1123.49 1407.94 L 763.27 1408.37 C 763.712 1350.23 764.325 1289.77 761.824 1231.81 C 761.408 1222.15 762.709 1208.15 761.657 1199.7 z"/>
<path transform="translate(0,0)" fill="#2fb9ca" d="M 926.097 1065.92 C 1010.9 1056.78 1087.07 1118.06 1096.3 1202.86 C 1105.53 1287.65 1044.33 1363.89 959.549 1373.21 C 874.64 1382.54 798.26 1321.23 789.016 1236.31 C 779.772 1151.39 841.169 1075.07 926.097 1065.92 z"/>
<path transform="translate(0,0)" fill="#010101" d="M 931.118 1095.36 C 999.929 1089.18 1060.67 1140.09 1066.6 1208.92 C 1072.53 1277.75 1021.41 1338.3 952.551 1343.99 C 884.05 1349.64 823.877 1298.83 817.974 1230.35 C 812.071 1161.87 862.66 1101.51 931.118 1095.36 z"/>
<path transform="translate(0,0)" fill="#010101" d="M 1004.6 517.034 C 1005.89 514.265 1006.32 511.962 1008.45 510.69 C 1009.78 513.303 1012.9 527.713 1015.28 533.794 C 1024.46 557.215 1036.24 574.537 1057.6 588.449 C 1062.21 591.448 1067.37 593.426 1071.02 595.729 C 1038.33 606.082 995.472 624.564 963.529 637.915 C 932.688 650.481 901.777 662.874 870.797 675.093 L 769.367 715.31 C 758.792 719.554 728.903 730.97 720.725 736.166 C 721.029 732.761 727.217 719.73 728.703 715.701 C 753.13 649.477 728.169 591.21 682.892 542.922 C 720.944 561.36 731.658 573.74 753.895 610.058 C 762.75 607.142 771.778 604.382 780.676 601.541 C 809.055 594.579 851.807 581.44 880.043 572.606 C 911.318 563.05 944.209 554.735 975.191 544.639 C 981.751 543.091 989.849 540.284 996.417 538.196 C 998.703 531.129 1001.78 523.944 1004.6 517.034 z"/>
<path transform="translate(0,0)" fill="#25c2d0" d="M 780.676 601.541 C 783.01 598.884 784.574 596.956 788.418 595.778 C 816.496 587.175 845.808 577.706 874.251 570.928 C 876.233 570.456 878.042 571.728 880.043 572.606 C 851.807 581.44 809.055 594.579 780.676 601.541 z"/>
<path transform="translate(0,0)" fill="#25c2d0" d="M 975.191 544.639 C 976.351 539.363 991.5 539.931 993.146 536.754 C 995.742 531.745 994.564 514.962 1002.33 513.881 L 1004.6 517.034 C 1001.78 523.944 998.703 531.129 996.417 538.196 C 989.849 540.284 981.751 543.091 975.191 544.639 z"/>
<path transform="translate(0,0)" fill="#25c2d0" d="M 645.016 543.375 C 645.565 543.371 650.483 543.328 650.491 543.331 C 659.16 546.674 689.047 573.561 687.926 581.897 C 673.901 563.903 664.008 555.271 645.016 543.375 z"/>
<path transform="translate(0,0)" fill="#010101" d="M 589.073 1486.06 C 635.842 1484.75 684.762 1485.58 731.673 1485.66 L 948.439 1485.59 L 1163.23 1485.84 C 1208.53 1485.79 1255.55 1484.93 1300.71 1486.35 L 1300.76 1632.07 L 1301.77 1633.35 C 1310.59 1635.37 1357.34 1633.78 1369.35 1633.77 L 1594.03 1633.56 L 1647.5 1633.59 C 1654.66 1633.58 1680.86 1630.96 1682.94 1639.69 C 1686.97 1656.6 1670.74 1654.53 1659.7 1654.55 C 1629.45 1654.59 1599.25 1654.59 1569.03 1654.57 L 1225.94 1653.78 L 603.333 1654.39 L 320.659 1654.45 C 313.208 1654.37 303.866 1653.93 300.829 1645.9 C 300.843 1629.33 320.489 1633.64 332.494 1633.63 L 389.004 1633.59 L 588.659 1633.5 C 589.246 1618.55 588.574 1599.12 588.548 1583.86 C 588.437 1551.26 588.612 1518.66 589.073 1486.06 z"/>
<path transform="translate(0,0)" fill="#2fb9ca" d="M 948.439 1485.59 L 1163.23 1485.84 C 1208.53 1485.79 1255.55 1484.93 1300.71 1486.35 L 1300.76 1632.07 L 1301.77 1633.35 C 1296 1634.13 1292.45 1633.89 1286.72 1633.69 C 1255.97 1635.21 1209.5 1633.49 1177.87 1633.46 C 1101.26 1633.11 1024.65 1633.27 948.044 1633.96 C 948.215 1585.38 947.023 1533.98 948.439 1485.59 z"/>
<path transform="translate(0,0)" fill="#25c2d0" d="M 1259.96 1631.27 C 1266.19 1629.84 1289.06 1628.32 1296.49 1627.71 L 1300.76 1632.07 L 1301.77 1633.35 C 1296 1634.13 1292.45 1633.89 1286.72 1633.69 C 1284.74 1632.29 1264.32 1631.59 1259.96 1631.27 z"/>
<path transform="translate(0,0)" fill="#010101" d="M 1102.18 401.495 C 1105.44 399.332 1112.27 398.33 1116.33 397.172 C 1150.18 387.536 1195.13 400.852 1216.58 430.147 C 1227.18 441.496 1232.83 448.683 1239.48 462.887 C 1240.85 465.804 1244.08 474.323 1245.44 475.983 C 1256.37 486.071 1269.26 496.181 1280.74 506.071 C 1313.04 533.994 1345.58 561.631 1378.36 588.979 C 1400.84 608.015 1423.01 627.047 1445.69 645.901 C 1459.75 657.594 1472.06 670.131 1486.92 681.861 L 1492.09 686.381 L 1492.77 686.841 C 1499.73 691.482 1506.53 694.455 1513.5 699.792 C 1528.36 711.181 1535.77 728.512 1539.9 746.211 C 1542.29 756.441 1541.17 775.208 1537.24 784.437 C 1535.39 792.086 1534.63 795.428 1531.79 802.515 C 1529.9 807.208 1520.81 824.765 1520.18 827.867 C 1520.32 839.114 1520.84 852.445 1520.57 863.523 C 1502.29 863.828 1484 863.871 1465.71 863.652 C 1452.09 863.441 1438.47 863.354 1424.84 863.389 C 1425.13 859.667 1426.22 848.55 1424.62 846.009 C 1418.84 836.834 1405.96 831.585 1397.51 822.662 C 1382.29 806.606 1377.15 795.331 1370.53 774.89 C 1352.29 764.771 1317.82 739.827 1299.84 727.287 L 1169.31 635.663 L 1132.26 609.77 C 1125.47 605.003 1115.45 595.798 1107.47 596.318 C 1099.84 597.076 1091.86 597.364 1084.25 596.273 C 1081.22 584.998 1053.48 577.123 1053.47 560.921 C 1025.41 523.29 1018.76 485.911 1042.62 443.912 C 1059.74 423.965 1076.48 409.217 1102.18 401.495 z"/>
<path transform="translate(0,0)" fill="#2fb9ca" d="M 1102.18 401.495 C 1105.44 399.332 1112.27 398.33 1116.33 397.172 C 1150.18 387.536 1195.13 400.852 1216.58 430.147 C 1218.98 435.527 1223.43 441.53 1225.98 447.939 C 1231.98 462.963 1233.61 481.189 1230.99 496.965 C 1226.96 522.294 1212.82 544.901 1191.81 559.601 C 1172.68 573.097 1149.61 579.419 1126.4 575.227 C 1102.59 571.033 1081.48 557.385 1067.89 537.388 C 1043.27 501.221 1046.66 454.456 1076.09 422.276 C 1084.65 412.915 1091.83 408.345 1102.18 401.495 z"/>
<path transform="translate(0,0)" fill="#010101" d="M 1134.29 422.681 C 1170.07 418.857 1202.13 444.858 1205.78 480.654 C 1209.43 516.449 1183.27 548.386 1147.46 551.86 C 1111.9 555.31 1080.23 529.372 1076.6 493.823 C 1072.98 458.274 1098.76 426.479 1134.29 422.681 z"/>
<path transform="translate(0,0)" fill="#2fb9ca" d="M 1245.44 475.983 C 1256.37 486.071 1269.26 496.181 1280.74 506.071 C 1313.04 533.994 1345.58 561.631 1378.36 588.979 C 1400.84 608.015 1423.01 627.047 1445.69 645.901 C 1459.75 657.594 1472.06 670.131 1486.92 681.861 C 1482.94 681.641 1476.31 677.939 1472.02 676.959 C 1442.65 670.247 1409.77 677.229 1388.56 699.111 C 1335 654.778 1279.29 611.268 1225.2 567.45 C 1247.88 536.489 1250.27 512.257 1245.44 475.983 z"/>
<path transform="translate(0,0)" fill="#2fb9ca" d="M 1537.24 784.437 C 1535.07 786.213 1532.82 790.625 1531.25 793.245 C 1515.08 820.282 1482.67 835.406 1450.97 828.462 C 1432.26 824.252 1415.97 812.824 1405.65 796.666 C 1394.75 779.79 1391.2 759.2 1395.81 739.649 C 1400.4 720.71 1412.3 704.359 1428.92 694.177 C 1449.61 681.484 1469.19 681.039 1492.09 686.381 L 1492.77 686.841 C 1499.73 691.482 1506.53 694.455 1513.5 699.792 C 1528.36 711.181 1535.77 728.512 1539.9 746.211 C 1542.29 756.441 1541.17 775.208 1537.24 784.437 z"/>
<path transform="translate(0,0)" fill="#010101" d="M 1460.55 710.635 C 1486.55 707.756 1509.99 726.436 1512.98 752.425 C 1515.98 778.414 1497.4 801.934 1471.42 805.041 C 1445.29 808.168 1421.59 789.45 1418.58 763.299 C 1415.56 737.148 1434.39 713.532 1460.55 710.635 z"/>
<path transform="translate(0,0)" fill="#2fb9ca" d="M 1465.71 863.652 C 1470.43 857.815 1487.02 853.682 1495.27 848.518 C 1507.25 841.019 1510.6 838.318 1520.18 827.867 C 1520.32 839.114 1520.84 852.445 1520.57 863.523 C 1502.29 863.828 1484 863.871 1465.71 863.652 z"/>
<path transform="translate(0,0)" fill="#25c2d0" d="M 1084.25 596.273 C 1081.22 584.998 1053.48 577.123 1053.47 560.921 C 1073.89 582.296 1081.48 583.987 1107.47 596.318 C 1099.84 597.076 1091.86 597.364 1084.25 596.273 z"/>
<path transform="translate(0,0)" fill="#010101" d="M 844.131 1424.5 L 1037.65 1424.44 C 1076.71 1424.47 1118.85 1423.84 1157.7 1425.05 C 1158.38 1437.97 1157.89 1455.73 1157.94 1469.03 C 1121.38 1469.67 1081.39 1468.71 1044.5 1468.6 L 729.549 1469.22 L 729.693 1424.63 L 844.131 1424.5 z"/>
<path transform="translate(0,0)" fill="#010101" d="M 1474.3 877.936 L 1523.73 877.909 C 1555.79 911.549 1557.03 958.323 1522 990.26 C 1507.52 1003.69 1488.21 1010.67 1468.49 1009.6 C 1455.95 1008.95 1443.35 1004.41 1432.71 997.831 C 1390.91 969.934 1382.73 913.535 1419.71 878.602 C 1432.83 877.167 1460.63 877.909 1474.3 877.936 z"/>
<path transform="translate(0,0)" fill="#2fb9ca" d="M 1474.3 877.936 L 1523.73 877.909 C 1555.79 911.549 1557.03 958.323 1522 990.26 C 1507.52 1003.69 1488.21 1010.67 1468.49 1009.6 C 1455.95 1008.95 1443.35 1004.41 1432.71 997.831 C 1441.04 988.625 1448.49 978.655 1454.95 968.055 C 1476.47 978.899 1502.16 968.248 1505.94 944.909 C 1511.8 908.736 1476.05 890.946 1447.14 911.041 C 1454.4 897.745 1463.35 888.195 1474.3 877.936 z"/>
<path transform="translate(0,0)" fill="#010101" d="M 1570.3 1059.97 C 1587.17 1059.08 1612.64 1059.72 1629.57 1060.15 C 1622.22 1091.71 1591.89 1128.2 1573.84 1156.44 L 1566.22 1167.71 C 1553.51 1168.17 1539.41 1167.99 1526.59 1168.1 C 1532.1 1150.86 1544.6 1124.64 1551.31 1107.13 C 1556.07 1094.69 1564.86 1070.95 1570.3 1059.97 z"/>
<path transform="translate(0,0)" fill="#010101" d="M 1314.19 1060.29 C 1330.71 1059.05 1356.58 1059.84 1373.77 1059.93 C 1376.23 1064.81 1378.12 1069.91 1380.09 1075 C 1392.06 1105.9 1405.6 1136.23 1416.69 1167.47 C 1404.05 1167.64 1391.42 1167.63 1378.78 1167.46 C 1362.59 1145.27 1347.88 1121.74 1332.17 1099.18 C 1323.64 1086.93 1317.16 1074.98 1314.19 1060.29 z"/>
<path transform="translate(0,0)" fill="#010101" d="M 1560.53 957.723 C 1580.83 973.116 1634.56 1015.45 1629.06 1043.04 C 1625.27 1046.02 1601.24 1044.64 1594.99 1044.55 L 1566.68 1044.49 C 1553.35 1032.31 1539.87 1020.28 1526.26 1008.41 C 1545.25 991.603 1552.25 981.416 1560.53 957.723 z"/>
<path transform="translate(0,0)" fill="#010101" d="M 1382.18 957.728 C 1384.54 959.288 1391.11 978.308 1394.63 983.332 C 1401.44 993.079 1408.77 1000.02 1417.05 1008.28 C 1402.4 1020.31 1390.12 1032.95 1376.77 1043.92 L 1347.75 1044.11 C 1336.47 1044.18 1325.24 1044.38 1313.97 1043.81 C 1317.42 1013.99 1328.89 1004.03 1350.66 986.042 C 1360.46 977.937 1372.86 966.619 1382.18 957.728 z"/>
</svg>